<?xml version="1.0" encoding="UTF-8" standalone="no"?>
<!DOCTYPE svg PUBLIC "-//W3C//DTD SVG 1.1//EN" "http://www.w3.org/Graphics/SVG/1.1/DTD/svg11.dtd">
<svg width="100%" height="100%" viewBox="0 0 24 24" version="1.1" xmlns="http://www.w3.org/2000/svg" xmlns:xlink="http://www.w3.org/1999/xlink" xml:space="preserve" xmlns:serif="http://www.serif.com/" style="fill-rule:evenodd;clip-rule:evenodd;stroke-linejoin:round;stroke-miterlimit:2;">
    <path d="M20,2L4,2C2.9,2 2,2.9 2,4L2,22L6,18L20,18C21.1,18 22,17.1 22,16L22,4C22,2.9 21.1,2 20,2M20,16L5.2,16L4,17.2L4,4L20,4L20,16M11,24L13,24L13,22L11,22L11,24M7,24L9,24L9,22L7,22L7,24M15,24L17,24L17,22L15,22L15,24" style="fill:white;fill-rule:nonzero;"/>
</svg>
